<svg width="104" height="45" viewBox="0 0 104 45" fill="none" xmlns="http://www.w3.org/2000/svg">
<path d="M0.88625 0.671997H26.6143V6.432H8.50225V18.912H23.4143L22.4543 24.672H8.50225V44H0.88625V0.671997ZM46.4178 0.0959969C49.6178 0.0959969 52.3484 0.607997 54.6098 1.632C56.8711 2.656 58.7271 4.10667 60.1778 5.984C61.6711 7.86133 62.7591 10.1653 63.4418 12.896C64.1244 15.584 64.4658 18.6133 64.4658 21.984C64.4658 25.312 64.0818 28.3627 63.3138 31.136C62.5884 33.8667 61.4364 36.2133 59.8577 38.176C58.3218 40.1387 56.3591 41.6747 53.9698 42.784C51.6231 43.8507 48.8284 44.384 45.5858 44.384C42.3858 44.384 39.6338 43.9147 37.3298 42.976C35.0684 41.9947 33.1911 40.5867 31.6978 38.752C30.2471 36.8747 29.1804 34.6133 28.4978 31.968C27.8151 29.3227 27.4738 26.2933 27.4738 22.88C27.4738 19.552 27.8364 16.5013 28.5618 13.728C29.3298 10.912 30.4818 8.50133 32.0178 6.496C33.5964 4.448 35.5804 2.86933 37.9698 1.76C40.3591 0.650664 43.1751 0.0959969 46.4178 0.0959969ZM45.5218 5.984C43.6444 5.984 42.0871 6.41066 40.8498 7.264C39.6124 8.07467 38.6098 9.20533 37.8418 10.656C37.0738 12.1067 36.5191 13.8133 36.1778 15.776C35.8791 17.7387 35.7298 19.872 35.7298 22.176C35.7298 24.352 35.8791 26.4213 36.1778 28.384C36.4764 30.3467 37.0098 32.0747 37.7778 33.568C38.5884 35.0613 39.6764 36.256 41.0417 37.152C42.4498 38.048 44.2631 38.496 46.4818 38.496C48.3164 38.496 49.8524 38.0907 51.0898 37.28C52.3698 36.4693 53.3938 35.36 54.1618 33.952C54.9298 32.544 55.4631 30.88 55.7618 28.96C56.1031 26.9973 56.2738 24.8853 56.2738 22.624C56.2738 20.448 56.1244 18.3573 55.8258 16.352C55.5271 14.3467 54.9724 12.576 54.1618 11.04C53.3938 9.504 52.3058 8.288 50.8978 7.392C49.5324 6.45333 47.7404 5.984 45.5218 5.984ZM71.3238 0.671997C71.6224 0.671997 72.3051 0.671997 73.3718 0.671997C74.4384 0.629331 75.6331 0.607998 76.9558 0.607998C78.2784 0.607998 79.6011 0.607998 80.9238 0.607998C82.2464 0.565332 83.3344 0.543999 84.1878 0.543999C89.4784 0.543999 93.3398 1.58933 95.7718 3.68C98.2038 5.728 99.4198 8.62933 99.4198 12.384C99.4198 14.8587 98.8011 17.056 97.5638 18.976C96.3264 20.896 94.2998 22.2827 91.4838 23.136C92.6784 23.8187 93.7451 24.7573 94.6838 25.952C95.6224 27.1467 96.5398 28.6187 97.4358 30.368C98.3318 32.0747 99.2491 34.08 100.188 36.384C101.126 38.6453 102.214 41.184 103.452 44H95.1958C93.7451 40.6293 92.4651 37.7493 91.3558 35.36C90.2891 32.9707 89.2438 31.0293 88.2198 29.536C87.1958 28.0427 86.0864 26.9547 84.8918 26.272C83.7398 25.5893 82.3744 25.248 80.7958 25.248H78.9398V44H71.3238V0.671997ZM78.9398 19.68H83.8678C86.2571 19.68 88.0918 19.1467 89.3718 18.08C90.6944 17.0133 91.3558 15.4347 91.3558 13.344C91.3558 12.4053 91.2278 11.488 90.9718 10.592C90.7158 9.696 90.2678 8.90666 89.6278 8.224C89.0304 7.54133 88.1984 7.008 87.1318 6.624C86.1078 6.19733 84.8064 5.984 83.2278 5.984H78.9398V19.68Z" fill="black"/>
</svg>
